<?xml version="1.0" standalone="no"?>
<!DOCTYPE svg PUBLIC "-//W3C//DTD SVG 20010904//EN"
 "http://www.w3.org/TR/2001/REC-SVG-20010904/DTD/svg10.dtd">
<svg version="1.0" xmlns="http://www.w3.org/2000/svg"
 width="1280.000000pt" height="1092.000000pt" viewBox="0 0 1280.000000 1092.000000"
 preserveAspectRatio="xMidYMid meet">
<metadata>
Created by potrace 1.15, written by Peter Selinger 2001-2017
</metadata>
<g transform="translate(0.000000,1092.000000) scale(0.100000,-0.100000)"
fill="#000000" stroke="none">
<path d="M2566 10698 c-140 -123 -255 -227 -255 -231 -1 -5 60 -7 134 -5 74 2
131 0 127 -3 -4 -4 -68 -35 -142 -69 -303 -141 -767 -391 -905 -488 -129 -91
-239 -228 -289 -359 -14 -38 -54 -180 -90 -318 -105 -407 -529 -1905 -902
-3185 -224 -773 -242 -835 -238 -839 7 -7 779 -77 786 -71 4 3 58 154 119 335
61 182 169 501 239 710 396 1176 787 2332 796 2355 3 8 48 -151 99 -355 51
-203 98 -389 104 -412 l12 -43 1109 0 1109 0 12 43 c6 23 53 209 104 412 51
204 96 363 99 355 9 -23 400 -1179 796 -2355 70 -209 178 -528 239 -710 61
-181 115 -332 119 -335 7 -6 779 64 786 71 4 4 -34 137 -248 874 -385 1322
-809 2824 -912 3225 -72 282 -127 394 -250 510 -87 81 -135 114 -384 256 -191
108 -628 330 -737 373 -18 8 -33 16 -33 20 0 3 58 5 130 3 71 -2 130 1 129 5
0 4 -115 108 -255 231 l-255 222 -449 0 -449 0 -255 -222z m1104 -402 l0 -163
-192 -134 c-106 -73 -200 -133 -208 -133 -8 0 -102 60 -207 133 l-193 134 0
163 0 164 400 0 400 0 0 -164z"/>
<path d="M9227 10913 c-4 -3 -7 -13 -7 -22 0 -9 -14 -65 -32 -124 -26 -85 -37
-109 -53 -112 -11 -3 -220 -48 -464 -100 -245 -52 -448 -98 -452 -102 -4 -5
-288 -384 -631 -844 l-625 -836 -86 -1022 -85 -1022 385 -642 c212 -353 386
-643 388 -645 1 -2 140 65 307 149 l304 152 99 -60 c255 -154 540 -264 845
-327 441 -90 967 -87 1397 10 293 65 630 202 839 341 l56 37 305 -153 c236
-118 308 -149 315 -139 5 7 180 298 389 645 l380 633 -26 292 c-14 161 -34
401 -45 533 -12 132 -29 339 -40 460 -10 121 -29 342 -41 490 l-22 270 -625
835 c-343 459 -628 839 -632 843 -3 4 -211 51 -461 105 -250 53 -459 100 -465
104 -8 6 -34 84 -80 246 -3 9 -125 12 -567 12 -310 0 -567 -3 -570 -7z m-1017
-2569 c70 -443 80 -1064 24 -1474 -27 -197 -81 -447 -94 -433 -4 4 -145 280
-313 613 l-306 605 331 407 c183 224 333 406 335 404 2 -2 13 -57 23 -122z
m3539 -293 l320 -394 -307 -613 c-169 -338 -310 -614 -313 -614 -13 0 -67 265
-93 455 -55 411 -46 979 24 1442 11 73 20 136 20 140 0 12 18 -10 349 -416z"/>
<path d="M2220 7400 l0 -200 95 0 95 0 0 200 0 200 -95 0 -95 0 0 -200z"/>
<path d="M2997 7593 c-4 -3 -7 -93 -7 -200 l0 -193 280 0 280 0 -2 198 -3 197
-271 3 c-149 1 -273 -1 -277 -5z"/>
<path d="M4130 7400 l0 -200 95 0 95 0 0 200 0 200 -95 0 -95 0 0 -200z"/>
<path d="M2140 7105 c0 -3 -23 -153 -51 -333 -28 -180 -59 -410 -69 -512 -11
-102 -69 -680 -130 -1285 -61 -605 -126 -1254 -145 -1442 -19 -188 -35 -349
-35 -357 0 -14 157 -16 1561 -16 l1562 0 -6 58 c-3 31 -74 732 -157 1557 -83
825 -155 1538 -160 1585 -5 47 -31 232 -59 412 -28 180 -51 330 -51 333 0 3
-508 5 -1130 5 -621 0 -1130 -2 -1130 -5z"/>
<path d="M10140 4950 c0 -28 9 -116 21 -198 19 -131 21 -176 15 -407 -17 -772
-37 -1034 -137 -1735 -84 -598 -111 -691 -244 -840 -25 -28 -132 -156 -239
-283 -274 -329 -406 -477 -475 -533 -137 -111 -506 -316 -656 -364 -191 -62
-593 -219 -715 -280 -111 -56 -115 -61 -150 -181 -16 -58 -30 -111 -30 -118 0
-8 322 -11 1249 -11 l1249 0 22 37 c13 21 101 191 198 378 96 187 185 355 197
373 43 63 122 102 252 122 93 15 108 10 130 -47 16 -43 18 -81 18 -373 0 -179
-4 -362 -8 -407 l-7 -83 290 0 290 0 0 50 c0 113 34 315 111 651 27 119 52
250 55 290 5 71 4 77 -34 154 -21 44 -75 134 -119 200 l-81 120 -7 160 c-9
216 2 303 84 670 38 171 80 362 94 425 28 128 42 169 234 660 217 552 244 644
283 958 38 301 49 539 29 618 l-11 44 -954 0 -954 0 0 -50z"/>
<path d="M5755 4494 c-224 -173 -392 -409 -456 -639 -18 -66 -20 -94 -15 -174
4 -53 6 -111 6 -129 0 -18 14 -60 31 -94 96 -190 207 -533 258 -798 46 -239
91 -751 91 -1037 0 -83 4 -134 11 -138 6 -4 37 -9 70 -12 94 -9 96 -6 86 179
-10 179 -2 850 13 1118 12 217 13 220 123 239 148 26 161 15 279 -216 107
-209 179 -391 258 -648 107 -350 141 -448 185 -541 58 -121 117 -192 189 -227
153 -75 441 -104 767 -77 257 21 716 96 959 156 195 48 201 51 239 117 53 93
36 162 -56 223 -69 45 -265 140 -498 239 -99 42 -247 112 -330 155 -202 106
-225 112 -415 110 -218 -1 -316 28 -408 121 -60 61 -85 106 -132 244 -109 316
-180 459 -362 730 -231 345 -719 1031 -800 1127 l-23 26 -70 -54z"/>
<path d="M3967 2565 c-16 -8 -120 -87 -231 -175 -112 -88 -226 -170 -252 -182
-71 -32 -171 -30 -245 4 -31 14 -161 99 -290 189 l-234 163 -71 4 c-59 3 -82
0 -140 -24 -114 -45 -232 -136 -247 -191 -129 -444 -228 -783 -302 -1038 -51
-176 -97 -332 -100 -347 l-7 -28 1492 0 c820 0 1489 4 1486 8 -5 9 -390 1331
-401 1376 -34 150 -332 307 -458 241z"/>
<path d="M1849 766 c-2 -2 -3 -65 -1 -140 l3 -136 1490 0 1489 0 0 140 0 140
-1488 0 c-819 0 -1491 -2 -1493 -4z"/>
<path d="M1250 185 l0 -185 2085 0 2085 0 0 185 0 185 -2085 0 -2085 0 0 -185z"/>
</g>
</svg>
