<!DOCTYPE svg PUBLIC "-//W3C//DTD SVG 1.1//EN" "http://www.w3.org/Graphics/SVG/1.1/DTD/svg11.dtd">
<!-- Uploaded to: SVG Repo, www.svgrepo.com, Transformed by: SVG Repo Mixer Tools -->
<svg height="800px" width="800px" version="1.1" id="Capa_1" xmlns="http://www.w3.org/2000/svg" xmlns:xlink="http://www.w3.org/1999/xlink" viewBox="-50.27 -50.27 603.20 603.20" xml:space="preserve" fill="#000000" stroke="#000000" stroke-width="15.079919999999998" transform="rotate(0)">
<g id="SVGRepo_bgCarrier" stroke-width="0"/>
<g id="SVGRepo_tracerCarrier" stroke-linecap="round" stroke-linejoin="round" stroke="#CCCCCC" stroke-width="9.047951999999999"/>
<g id="SVGRepo_iconCarrier"> <g> <g> <g> <path style="fill:#ffffff;" d="M378.74,181.184c0-76.576-84.708-138.743-189.305-138.743C84.73,42.441,0,104.608,0,181.184 c0,47.154,32.291,88.591,81.343,113.7l-47.024,89.389l101.987-70.515c16.955,3.645,34.6,6.234,53.129,6.234 C294.053,319.992,378.74,257.846,378.74,181.184z M129.942,196.24H89.95v-40.014h39.992V196.24z M251.3,156.226h39.992v40.014 H251.3V156.226z M170.625,156.226h39.971v40.014h-39.971V156.226z"/> <path style="fill:#ffffff;" d="M502.664,268.481c0-50.325-38.763-93.984-95.602-115.943c2.804,10.332,4.314,21.053,4.314,32.097 c0,90.77-100.304,164.412-224.25,164.412c-1.532,0-2.955-0.324-4.465-0.324c32.68,30.868,83.695,50.799,141.138,50.799 c17.515,0,34.147-2.438,50.152-5.846l96.378,66.546l-44.457-84.363C472.206,352.111,502.664,312.981,502.664,268.481z"/> </g> </g> <g> </g> <g> </g> <g> </g> <g> </g> <g> </g> <g> </g> <g> </g> <g> </g> <g> </g> <g> </g> <g> </g> <g> </g> <g> </g> <g> </g> <g> </g> </g> </g>
</svg>