<svg id="visual" viewBox="0 0 900 600" width="900" height="600" xmlns="http://www.w3.org/2000/svg" xmlns:xlink="http://www.w3.org/1999/xlink" version="1.1"><rect x="0" y="0" width="900" height="600" fill="#ffffff"></rect><path d="M285 0L278.2 7.7C271.3 15.3 257.7 30.7 238 46C218.3 61.3 192.7 76.7 178.7 92C164.7 107.3 162.3 122.7 167.8 138.2C173.3 153.7 186.7 169.3 197.7 184.8C208.7 200.3 217.3 215.7 229.5 231C241.7 246.3 257.3 261.7 261.8 277C266.3 292.3 259.7 307.7 256.5 323C253.3 338.3 253.7 353.7 237.8 369C222 384.3 190 399.7 192.8 415.2C195.7 430.7 233.3 446.3 236 461.8C238.7 477.3 206.3 492.7 191.8 508C177.3 523.3 180.7 538.7 196 554C211.3 569.3 238.7 584.7 252.3 592.3L266 600L0 600L0 592.3C0 584.7 0 569.3 0 554C0 538.7 0 523.3 0 508C0 492.7 0 477.3 0 461.8C0 446.3 0 430.7 0 415.2C0 399.7 0 384.3 0 369C0 353.7 0 338.3 0 323C0 307.7 0 292.3 0 277C0 261.7 0 246.3 0 231C0 215.7 0 200.3 0 184.8C0 169.3 0 153.7 0 138.2C0 122.7 0 107.3 0 92C0 76.7 0 61.3 0 46C0 30.7 0 15.3 0 7.7L0 0Z" fill="#cfcfcf"></path><path d="M126 0L126.8 7.7C127.7 15.3 129.3 30.7 141 46C152.7 61.3 174.3 76.7 178.8 92C183.3 107.3 170.7 122.7 177 138.2C183.3 153.7 208.7 169.3 219 184.8C229.3 200.3 224.7 215.7 211.8 231C199 246.3 178 261.7 172.2 277C166.3 292.3 175.7 307.7 170.8 323C166 338.3 147 353.7 145.7 369C144.3 384.3 160.7 399.7 167.5 415.2C174.3 430.7 171.7 446.3 164.8 461.8C158 477.3 147 492.7 155.3 508C163.7 523.3 191.3 538.7 195.2 554C199 569.3 179 584.7 169 592.3L159 600L0 600L0 592.3C0 584.7 0 569.3 0 554C0 538.7 0 523.3 0 508C0 492.7 0 477.3 0 461.8C0 446.3 0 430.7 0 415.2C0 399.7 0 384.3 0 369C0 353.7 0 338.3 0 323C0 307.7 0 292.3 0 277C0 261.7 0 246.3 0 231C0 215.7 0 200.3 0 184.8C0 169.3 0 153.7 0 138.2C0 122.7 0 107.3 0 92C0 76.7 0 61.3 0 46C0 30.7 0 15.3 0 7.7L0 0Z" fill="#9e9fa2"></path><path d="M163 0L151.8 7.7C140.7 15.3 118.3 30.7 121 46C123.7 61.3 151.3 76.7 166.7 92C182 107.3 185 122.7 177.5 138.2C170 153.7 152 169.3 138.5 184.8C125 200.3 116 215.7 124.7 231C133.3 246.3 159.7 261.7 161 277C162.3 292.3 138.7 307.7 138.3 323C138 338.3 161 353.7 166.2 369C171.3 384.3 158.7 399.7 148.5 415.2C138.3 430.7 130.7 446.3 125.3 461.8C120 477.3 117 492.7 116.2 508C115.3 523.3 116.7 538.7 119.5 554C122.3 569.3 126.7 584.7 128.8 592.3L131 600L0 600L0 592.3C0 584.7 0 569.3 0 554C0 538.7 0 523.3 0 508C0 492.7 0 477.3 0 461.8C0 446.3 0 430.7 0 415.2C0 399.7 0 384.3 0 369C0 353.7 0 338.3 0 323C0 307.7 0 292.3 0 277C0 261.7 0 246.3 0 231C0 215.7 0 200.3 0 184.8C0 169.3 0 153.7 0 138.2C0 122.7 0 107.3 0 92C0 76.7 0 61.3 0 46C0 30.7 0 15.3 0 7.7L0 0Z" fill="#707278"></path><path d="M95 0L102.5 7.7C110 15.3 125 30.7 129.2 46C133.3 61.3 126.7 76.7 114.8 92C103 107.3 86 122.7 80 138.2C74 153.7 79 169.3 77.8 184.8C76.7 200.3 69.3 215.7 65.5 231C61.7 246.3 61.3 261.7 74.2 277C87 292.3 113 307.7 120 323C127 338.3 115 353.7 109.5 369C104 384.3 105 399.7 109.5 415.2C114 430.7 122 446.3 115.8 461.8C109.7 477.3 89.3 492.7 82.8 508C76.3 523.3 83.7 538.7 92.5 554C101.3 569.3 111.7 584.7 116.8 592.3L122 600L0 600L0 592.3C0 584.7 0 569.3 0 554C0 538.7 0 523.3 0 508C0 492.7 0 477.3 0 461.8C0 446.3 0 430.7 0 415.2C0 399.7 0 384.3 0 369C0 353.7 0 338.3 0 323C0 307.7 0 292.3 0 277C0 261.7 0 246.3 0 231C0 215.7 0 200.3 0 184.8C0 169.3 0 153.7 0 138.2C0 122.7 0 107.3 0 92C0 76.7 0 61.3 0 46C0 30.7 0 15.3 0 7.7L0 0Z" fill="#454850"></path><path d="M55 0L53.3 7.7C51.7 15.3 48.3 30.7 50.5 46C52.7 61.3 60.3 76.7 60.8 92C61.3 107.3 54.7 122.7 56.8 138.2C59 153.7 70 169.3 76 184.8C82 200.3 83 215.7 80.3 231C77.7 246.3 71.3 261.7 67.5 277C63.7 292.3 62.3 307.7 63.3 323C64.3 338.3 67.7 353.7 65.3 369C63 384.3 55 399.7 53.3 415.2C51.7 430.7 56.3 446.3 54.8 461.8C53.3 477.3 45.7 492.7 48.5 508C51.3 523.3 64.7 538.7 69.8 554C75 569.3 72 584.7 70.5 592.3L69 600L0 600L0 592.3C0 584.7 0 569.3 0 554C0 538.7 0 523.3 0 508C0 492.7 0 477.3 0 461.8C0 446.3 0 430.7 0 415.2C0 399.7 0 384.3 0 369C0 353.7 0 338.3 0 323C0 307.7 0 292.3 0 277C0 261.7 0 246.3 0 231C0 215.7 0 200.3 0 184.8C0 169.3 0 153.7 0 138.2C0 122.7 0 107.3 0 92C0 76.7 0 61.3 0 46C0 30.7 0 15.3 0 7.7L0 0Z" fill="#1d222b"></path></svg>