<?xml version="1.0" standalone="no"?>
<!DOCTYPE svg PUBLIC "-//W3C//DTD SVG 20010904//EN"
 "http://www.w3.org/TR/2001/REC-SVG-20010904/DTD/svg10.dtd">
<svg version="1.0" xmlns="http://www.w3.org/2000/svg"
 width="1274.000000pt" height="1280.000000pt" viewBox="0 0 1274.000000 1280.000000"
 preserveAspectRatio="xMidYMid meet">
<metadata>
Created by potrace 1.15, written by Peter Selinger 2001-2017
</metadata>
<g transform="translate(0.000000,1280.000000) scale(0.100000,-0.100000)"
fill="#000000" stroke="none">
<path d="M5023 11366 c-18 -13 -55 -26 -83 -30 -30 -4 -74 -21 -110 -42 -114
-67 -583 -244 -950 -359 -255 -80 -391 -135 -475 -190 -78 -52 -384 -379 -503
-537 -55 -73 -171 -228 -258 -343 -88 -116 -201 -271 -253 -345 -82 -117 -425
-574 -653 -870 -98 -128 -420 -509 -486 -576 -41 -42 -162 -192 -162 -201 0
-24 114 -130 307 -286 120 -97 265 -217 323 -268 58 -50 143 -121 190 -157
146 -113 349 -291 502 -438 98 -95 158 -146 183 -154 l36 -12 96 89 c53 48
133 124 178 168 45 44 104 100 131 125 27 25 72 70 101 100 46 50 120 119 386
357 51 46 98 83 105 83 15 0 14 -9 -9 -510 -15 -306 -17 -383 -28 -770 -19
-641 -23 -912 -31 -2035 -5 -621 -11 -1177 -14 -1235 -2 -58 -7 -253 -10 -435
-4 -181 -9 -389 -11 -461 -8 -216 -7 -778 0 -797 24 -60 248 -85 816 -91 228
-2 464 -9 524 -15 104 -10 483 -32 570 -33 22 0 89 5 148 11 60 6 161 11 225
11 65 1 176 6 247 11 279 19 368 20 485 5 125 -16 318 -15 825 5 154 6 633 14
1065 18 770 8 823 10 870 41 9 6 15 29 17 67 5 108 3 648 -2 693 -13 106 -23
419 -35 1065 -6 275 -15 644 -20 820 -5 176 -14 514 -20 750 -6 237 -17 572
-25 745 -22 484 -24 551 -32 1065 -12 699 -10 972 4 986 9 9 34 -10 110 -82
54 -52 136 -123 183 -159 47 -35 108 -82 135 -105 227 -187 291 -244 342 -301
32 -36 78 -80 103 -97 25 -16 60 -44 78 -61 l33 -31 42 23 c23 12 67 46 98 75
30 28 86 79 125 112 38 33 112 98 164 145 209 189 394 343 565 470 99 74 207
159 240 190 85 80 204 181 248 210 20 14 37 28 37 32 0 4 -12 16 -27 28 -42
31 -166 182 -333 405 -83 110 -172 227 -198 260 -99 127 -173 230 -377 530
-501 734 -626 898 -927 1211 -43 45 -78 86 -78 92 0 28 -389 371 -440 387 -12
4 -32 17 -46 30 -47 44 -208 116 -359 161 -82 24 -244 72 -360 105 -115 33
-277 82 -360 109 -82 27 -190 61 -240 75 -49 15 -126 44 -170 65 -44 21 -102
44 -130 51 -27 6 -72 24 -100 39 -58 32 -105 31 -145 -5 -33 -30 -261 -134
-388 -179 -211 -73 -452 -101 -802 -93 -245 6 -518 39 -647 78 -75 23 -263
114 -332 162 -48 33 -131 68 -159 66 -9 0 -31 -11 -49 -23z"/>
</g>
</svg>
